# xmcd
#
# Track frame offsets: 
#        150
#        3744
#        19933
#        38521
#        58315
#        74723
#        92864
#        116185
#        133048
#        153504
#        173129
#        188494
#
# Disc length: 2893 seconds
#
# Revision: 0
# Processed by: cddbd v1.5.2PL0 Copyright (c) Steve Scherf et al.
# Submitted via: ExactAudioCopy v0.95b4
#
DISCID=a90b4b0c
DTITLE=Evocation - Tales From The Tomb
DYEAR=2007
DGENRE=Death Metal
TTITLE0=Eternal Lie
TTITLE1=The Dead
TTITLE2=Chronic Hell
TTITLE3=Greed
TTITLE4=From Menace To Mayhem
TTITLE5=Blessed Upon The Altar
TTITLE6=Feed The Fire
TTITLE7=The Symbols of Sin
TTITLE8=Phase of Fear
TTITLE9=Veils Were Blown
TTITLE10=But Life Goes On
TTITLE11=The More We Bleed
EXTD=
EXTT0=
EXTT1=
EXTT2=
EXTT3=
EXTT4=
EXTT5=
EXTT6=
EXTT7=
EXTT8=
EXTT9=
EXTT10=
EXTT11=
PLAYORDER=
